<svg width="223" height="45" viewBox="0 0 223 45" fill="none" xmlns="http://www.w3.org/2000/svg">
<path d="M22.2906 8.81909C29.0259 8.81909 31.7921 11.292 31.7921 16.6368H25.137C25.137 14.9217 24.5357 14.0442 21.7293 14.0442H10.5439C8.65965 14.0442 7.33665 14.802 7.33665 16.916C7.33665 19.4288 8.69974 19.7479 10.5439 19.7479H22.6915C28.8254 19.7479 31.7921 20.386 31.7921 28.084C31.7921 33.9473 29.2263 36.5 22.6514 36.5H9.22092C2.12482 36.5 0 33.9872 0 28.6425H6.6551C6.6551 29.9986 8.05828 31.2749 9.94256 31.2749H21.0878C24.0145 31.2749 25.137 30.3177 25.137 28.084C25.137 26.0897 24.696 24.9729 20.8874 24.9729H11.025C3.44782 24.9729 0.681546 23.6567 0.681546 16.6368C0.681546 11.0527 3.5681 8.81909 10.9849 8.81909H22.2906ZM43.036 28.3234V36.5H36.381V8.81909H55.3439C62.3598 8.81909 65.1261 11.5313 65.1261 18.5114C65.086 25.5313 62.2796 28.3234 55.4241 28.3234H43.036ZM43.036 22.8191H54.1412C57.5088 22.8191 58.471 21.5029 58.471 18.5114C58.471 15.7991 57.6291 14.3234 54.1412 14.3234H43.036V22.8191ZM75.1012 26.3689C75.1012 29.9986 76.2639 30.9957 80.3131 30.9957H89.1331C93.3827 30.9957 94.3449 30.0784 94.3449 26.3291V18.9501C94.3449 14.9217 92.9818 14.0043 89.0128 14.0043H80.4333C76.2639 14.0043 75.1012 15.0413 75.1012 18.99V26.3689ZM101 27.047C101 33.9473 98.7148 36.5 90.9372 36.5H78.7094C71.2525 36.5 68.4461 33.7479 68.4461 27.047V18.3519C68.4461 10.7735 71.1322 8.5 78.7094 8.5H90.9372C97.8328 8.5 101 10.5741 101 18.3519V27.047Z" fill="#CFF43F"/>
<path d="M112.639 21.5V36.5H109V21.5H112.639ZM115.159 25.8228H118.798V31.1182C118.798 33.1499 119.829 34.036 121.933 34.036H123.358C125.2 34.036 126.493 32.9986 126.493 31.1182V25.8228H130.132V36.5H126.493V35.1383C125.967 35.9164 124.915 36.5 123.358 36.5H119.873C117.11 36.5 115.159 35.1383 115.159 31.9827V25.8228ZM146.527 29.5403H142.888C142.888 28.6542 142.581 28.2435 141.332 28.2435H137.89C136.619 28.2435 135.851 29 135.851 30.3401V32.1772C135.851 33.3444 136.684 34.036 137.78 34.036H141.288C142.647 34.036 142.888 33.6686 142.888 32.6311H146.527C146.527 35.1816 145.65 36.5 141.748 36.5H136.575C133.725 36.5 132.212 34.6628 132.212 32.5447V29.9726C132.212 27.4654 133.747 25.7795 136.684 25.7795H141.617C145.102 25.7795 146.527 26.7954 146.527 29.5403ZM163.048 36.5H159.409V30.9885C159.409 29.1297 158.686 28.2867 156.822 28.2867H155.047C153.205 28.2867 152.153 29.3674 152.153 31.2695V36.5H148.514V21.5H152.153V27.3573C152.548 26.7738 153.425 25.8228 155.31 25.8228H158.247C161.601 25.8228 163.048 27.4654 163.048 30.0159V36.5ZM169.104 21.5V29.6484H170.441L174.102 25.8228H178.202L173.138 30.7723L178.662 36.5H174.322L170.441 31.8746H169.104V36.5H165.465V21.5H169.104ZM183.802 25.8228V36.5H180.163V25.8228H183.802ZM180.163 21.5H183.802V24.4827H180.163V21.5ZM186.78 36.5V32.9121H190.419V36.5H186.78ZM196.439 25.8228V27.379C197.316 26.2767 198.039 25.8228 199.552 25.8228H201.371C205.273 25.8228 206.107 27.8977 206.107 30.1671H202.467C202.248 29.2378 202.007 28.2867 200.275 28.2867H198.938C197.469 28.2867 196.439 29.4107 196.439 30.8588V36.5H192.8V25.8228H196.439ZM208.027 25.8228H211.666V31.1182C211.666 33.1499 212.697 34.036 214.801 34.036H216.226C218.068 34.036 219.361 32.9986 219.361 31.1182V25.8228H223V36.5H219.361V35.1383C218.835 35.9164 217.783 36.5 216.226 36.5H212.741C209.978 36.5 208.027 35.1383 208.027 31.9827V25.8228Z" fill="#E1E1E1"/>
</svg>
