<svg width="130" height="28" viewBox="0 0 130 28" fill="none" xmlns="http://www.w3.org/2000/svg">
<path d="M13.0212 5.69373C16.9557 5.69373 18.5716 7.19516 18.5716 10.4402H14.684C14.684 9.39886 14.3327 8.8661 12.6934 8.8661H6.15932C5.05861 8.8661 4.28576 9.32621 4.28576 10.6097C4.28576 12.1353 5.08203 12.3291 6.15932 12.3291H13.2554C16.8386 12.3291 18.5716 12.7165 18.5716 17.3903C18.5716 20.9501 17.0728 22.5 13.232 22.5H5.38648C1.24123 22.5 0 20.9744 0 17.7293H3.88763C3.88763 18.5527 4.70731 19.3276 5.80803 19.3276H12.3186C14.0283 19.3276 14.684 18.7464 14.684 17.3903C14.684 16.1795 14.4264 15.5014 12.2015 15.5014H6.44036C2.01407 15.5014 0.398131 14.7023 0.398131 10.4402C0.398131 7.04986 2.08433 5.69373 6.41694 5.69373H13.0212ZM25.1398 17.5356V22.5H21.2523V5.69373H32.3296C36.428 5.69373 38.044 7.34046 38.044 11.5783C38.0205 15.8405 36.3812 17.5356 32.3764 17.5356H25.1398ZM25.1398 14.1937H31.627C33.5943 14.1937 34.1563 13.3946 34.1563 11.5783C34.1563 9.93162 33.6645 9.03561 31.627 9.03561H25.1398V14.1937ZM43.871 16.349C43.871 18.5527 44.5502 19.1581 46.9155 19.1581H52.0678C54.5503 19.1581 55.1124 18.6011 55.1124 16.3248V11.8447C55.1124 9.39886 54.3161 8.84188 51.9976 8.84188H46.9858C44.5502 8.84188 43.871 9.47151 43.871 11.8689V16.349ZM59 16.7607C59 20.9501 57.6651 22.5 53.1217 22.5H45.9788C41.6227 22.5 39.9834 20.8291 39.9834 16.7607V11.4815C39.9834 6.88034 41.5525 5.5 45.9788 5.5H53.1217C57.1499 5.5 59 6.75926 59 11.4815V16.7607Z" fill="#CFF43F"/>
<path d="M65.1387 13.5V22.5H63V13.5H65.1387ZM66.62 16.0937H68.7587V19.2709C68.7587 20.4899 69.3642 21.0216 70.6011 21.0216H71.4385C72.5208 21.0216 73.2809 20.3991 73.2809 19.2709V16.0937H75.4196V22.5H73.2809V21.683C72.9717 22.1499 72.3533 22.5 71.4385 22.5H69.39C67.7666 22.5 66.62 21.683 66.62 19.7896V16.0937ZM85.0554 18.3242H82.9167C82.9167 17.7925 82.7363 17.5461 82.002 17.5461H79.9792C79.2319 17.5461 78.781 18 78.781 18.804V19.9063C78.781 20.6066 79.2706 21.0216 79.9148 21.0216H81.9762C82.775 21.0216 82.9167 20.8012 82.9167 20.1787H85.0554C85.0554 21.7089 84.5401 22.5 82.2468 22.5H79.2062C77.5313 22.5 76.6423 21.3977 76.6423 20.1268V18.5836C76.6423 17.0793 77.5441 16.0677 79.2706 16.0677H82.1695C84.218 16.0677 85.0554 16.6772 85.0554 18.3242ZM94.7652 22.5H92.6265V19.1931C92.6265 18.0778 92.2013 17.572 91.1062 17.572H90.0626C88.9803 17.572 88.3619 18.2205 88.3619 19.3617V22.5H86.2232V13.5H88.3619V17.0144C88.5938 16.6643 89.1092 16.0937 90.2172 16.0937H91.9436C93.9148 16.0937 94.7652 17.0793 94.7652 18.6095V22.5ZM98.3243 13.5V18.389H99.1103L101.262 16.0937H103.671L100.695 19.0634L103.942 22.5H101.391L99.1103 19.7248H98.3243V22.5H96.1856V13.5H98.3243ZM106.962 16.0937V22.5H104.824V16.0937H106.962ZM104.824 13.5H106.962V15.2896H104.824V13.5ZM108.713 22.5V20.3473H110.851V22.5H108.713ZM114.39 16.0937V17.0274C114.905 16.366 115.33 16.0937 116.219 16.0937H117.288C119.582 16.0937 120.071 17.3386 120.071 18.7003H117.933C117.804 18.1427 117.662 17.572 116.644 17.572H115.858C114.995 17.572 114.39 18.2464 114.39 19.1153V22.5H112.251V16.0937H114.39ZM121.2 16.0937H123.339V19.2709C123.339 20.4899 123.945 21.0216 125.181 21.0216H126.019C127.101 21.0216 127.861 20.3991 127.861 19.2709V16.0937H130V22.5H127.861V21.683C127.552 22.1499 126.934 22.5 126.019 22.5H123.97C122.347 22.5 121.2 21.683 121.2 19.7896V16.0937Z" fill="#313132"/>
</svg>
