<svg width="51" height="52" viewBox="0 0 51 52" fill="none" xmlns="http://www.w3.org/2000/svg">
<path d="M28.5563 18.4641C27.452 19.3344 26.0757 19.8813 24.5643 19.9541C20.7027 20.1399 17.4219 17.1602 17.2363 13.2987C17.0507 9.43715 20.0306 6.15608 23.8921 5.97021C26.3952 5.84973 28.6543 7.05935 29.9845 8.97706M14.6416 42.6317L19.8562 42.3807C20.5361 42.3479 21.2157 42.3963 21.8826 42.5264L27.4567 43.6001C28.6662 43.8338 29.913 43.8022 31.1097 43.5094L37.1447 42.031C38.7389 41.64 40.1822 40.7982 41.2882 39.6138L45.3967 35.2135C46.5701 33.959 46.4769 32.0194 45.1885 30.8813C44.0285 29.8566 42.2678 29.8197 41.058 30.7942L36.2109 34.7009C35.5168 35.2614 34.6551 35.5867 33.7548 35.63L28.9041 35.8635L31.9917 35.7147C33.7319 35.631 35.0757 34.1918 34.9943 32.4989L34.9649 31.8861C34.8973 30.4804 33.8549 29.3021 32.4373 29.0298L27.6161 28.1002C26.8315 27.9495 26.0327 27.8926 25.2343 27.9311C23.3069 28.0238 19.8948 29.7876 19.8948 29.7876L14.1555 32.5188M41.3045 14.1425C41.4902 18.004 38.5103 21.2851 34.6487 21.471C30.7872 21.6568 27.5064 18.6771 27.3207 14.8156C27.1351 10.9541 30.115 7.67299 33.9766 7.48712C37.8381 7.30125 41.1189 10.281 41.3045 14.1425ZM6.12398 32.0546L6.68093 43.6413C6.73471 44.7601 6.7616 45.3195 6.99988 45.7363C7.20947 46.103 7.52977 46.3939 7.91486 46.5673C8.35266 46.7645 8.91206 46.7376 10.0309 46.6837L11.629 46.6068C12.7478 46.5529 13.3072 46.526 13.7241 46.2877C14.0908 46.0781 14.3817 45.7578 14.5552 45.3727C14.7524 44.9349 14.7255 44.3754 14.6717 43.2566L14.1147 31.67C14.061 30.5512 14.0341 29.9918 13.7958 29.5749C13.5862 29.2083 13.2659 28.9174 12.8808 28.7439C12.443 28.5468 11.8836 28.5737 10.7648 28.6276L9.16664 28.7045C8.04783 28.7583 7.48843 28.7853 7.07157 29.0236C6.70488 29.2332 6.41397 29.5535 6.24051 29.9386C6.04332 30.3764 6.07021 30.9358 6.12398 32.0546Z" stroke="#CFF43F" stroke-width="3.5" stroke-linecap="round" stroke-linejoin="round"/>
</svg>
