<svg width="96" height="96" viewBox="0 0 96 96" fill="none" xmlns="http://www.w3.org/2000/svg">
<path d="M49.0933 11.139L49.0932 11.139C48.9901 11.1986 48.8778 11.2267 48.7663 11.2267C48.5391 11.2267 48.3191 11.1086 48.1974 10.8987C48.0163 10.585 48.1237 10.1843 48.4376 10.003C48.4376 10.003 48.4376 10.003 48.4376 10.003L50.8291 8.62242L50.8291 8.62242L50.8303 8.62176C51.139 8.44133 51.5424 8.54775 51.7251 8.86276C51.9061 9.1764 51.7987 9.57708 51.4848 9.75838C51.4848 9.75839 51.4848 9.7584 51.4848 9.75841L49.0933 11.139Z" fill="#CFF43F" stroke="#313132" stroke-width="0.5"/>
<path d="M54.9627 28.4881L54.9616 28.4887L39.508 37.4109C39.508 37.4109 39.5079 37.4109 39.5079 37.4109C39.194 37.5922 39.0866 37.993 39.2678 38.3067L39.2678 38.3067C39.4494 38.6212 39.8516 38.7271 40.1635 38.5469L40.1636 38.5469L55.6173 29.6247C55.6173 29.6247 55.6173 29.6247 55.6173 29.6247C55.9312 29.4434 56.0386 29.0427 55.8576 28.7291L54.9627 28.4881ZM54.9627 28.4881C55.2733 28.3067 55.6748 28.4132 55.8575 28.7289L54.9627 28.4881Z" fill="#CFF43F" stroke="#313132" stroke-width="0.5"/>
<path d="M54.9624 36.1633L54.9616 36.1637L39.508 45.0859C39.508 45.0859 39.5079 45.0859 39.5079 45.0859C39.194 45.2672 39.0866 45.668 39.2678 45.9817L39.2678 45.9817C39.4494 46.2962 39.8516 46.4021 40.1635 46.2219L40.1636 46.2219L55.6173 37.2997C55.6173 37.2997 55.6173 37.2997 55.6173 37.2997C55.9312 37.1184 56.0386 36.7177 55.8576 36.4041L54.9624 36.1633ZM54.9624 36.1633C55.2735 35.9823 55.675 36.0886 55.8575 36.4039L54.9624 36.1633Z" fill="#CFF43F" stroke="#313132" stroke-width="0.5"/>
<path d="M54.9621 43.8377L54.9616 43.838L39.508 52.7601C39.508 52.7601 39.5079 52.7601 39.5079 52.7601C39.194 52.9415 39.0866 53.3423 39.2678 53.6559L39.2678 53.6559C39.3892 53.8663 39.609 53.9838 39.8366 53.9838C39.9481 53.9838 40.0604 53.9557 40.1635 53.8961L40.1636 53.8961L55.6173 44.974C55.6173 44.9739 55.6173 44.9739 55.6173 44.9739C55.9311 44.7927 56.0386 44.3921 55.8577 44.0785L54.9621 43.8377ZM54.9621 43.8377C55.2733 43.6572 55.675 43.7638 55.8575 44.0782L54.9621 43.8377Z" fill="#CFF43F" stroke="#313132" stroke-width="0.5"/>
<path d="M54.9624 51.5118L54.9616 51.5123L39.508 60.4344C39.508 60.4344 39.5079 60.4344 39.5079 60.4344C39.194 60.6158 39.0866 61.0165 39.2678 61.3302L39.2678 61.3302C39.3892 61.5406 39.609 61.6581 39.8366 61.6581C39.9481 61.6581 40.0604 61.63 40.1635 61.5704L40.1636 61.5704L55.6173 52.6482C55.6173 52.6482 55.6173 52.6482 55.6173 52.6482C55.9312 52.4669 56.0386 52.0662 55.8576 51.7526L54.9624 51.5118ZM54.9624 51.5118C55.2735 51.3308 55.675 51.4371 55.8575 51.7524L54.9624 51.5118Z" fill="#CFF43F" stroke="#313132" stroke-width="0.5"/>
<mask id="path-6-inside-1_111_28076" fill="white">
<path d="M73.5797 53.3463L73.5781 53.3452C73.5717 53.3414 73.5663 53.3363 73.5598 53.3326C73.5542 53.3293 73.5478 53.3275 73.5422 53.3243L69.0652 50.7191C68.805 50.5693 68.5342 50.4446 68.2567 50.3369L68.1498 11.635C68.1498 10.6247 67.7515 9.81433 67.0646 9.38759C67.0459 9.37476 67.0349 9.35509 67.015 9.34348L59.2417 4.81164C58.5156 4.39153 57.5825 4.44548 56.6742 4.96022L53.1887 6.97143C52.7553 7.22172 52.6067 7.77538 52.857 8.20875C53.1073 8.64124 53.6618 8.78805 54.0943 8.54041L57.5728 6.53363C57.9549 6.31695 58.2264 6.31783 58.3334 6.37886L64.069 9.7229L29.6106 29.6218C28.0433 30.5159 26.8157 32.6333 26.8157 34.4455C26.8971 61.6938 26.8962 61.3759 26.977 88.4429L21.2438 85.0882C21.1032 85.0068 21.0139 84.7326 21.0059 84.3718L20.8582 29.9128C20.8582 28.7603 21.7347 27.232 22.7261 26.6474L46.1539 13.1244C46.5873 12.8741 46.7358 12.3205 46.4856 11.8871C46.2344 11.4537 45.6807 11.3052 45.2482 11.5554L21.8134 25.0829C20.2621 25.9983 19.0469 28.1191 19.0469 29.9154L19.1946 84.3948C19.2264 85.8081 19.926 86.4184 20.3346 86.6545L28.1035 91.2005C28.1269 91.2142 28.154 91.2093 28.1781 91.2207C28.9802 91.6463 29.8848 91.4861 30.6736 91.0316L54.6013 77.2188L56.3409 78.2292L56.3585 87.7848C56.3594 88.1068 56.531 88.4048 56.8096 88.5667L61.3379 91.1934C61.37 91.2121 61.4082 91.207 61.442 91.2214C61.4678 91.2327 61.4806 91.2605 61.5077 91.2695C61.7419 91.3468 61.9811 91.3292 62.2192 91.2007C62.2277 91.1962 62.2378 91.1983 62.2462 91.1934C62.2831 91.1721 62.3004 91.1317 62.3335 91.1059C62.3965 91.0571 62.4673 91.0195 62.5168 90.9537L66.4402 85.7276L70.1689 86.375C70.7365 86.4677 71.2312 86.0344 71.2294 85.48L71.1942 74.7238C74.7675 70.606 76.977 65.2208 76.964 60.5734C76.9543 57.1731 75.752 54.6083 73.5797 53.3463ZM75.1527 60.5787C75.169 66.1852 71.3582 73.5494 65.9203 76.9422C60.5981 80.2308 56.8541 77.7327 56.8379 72.1914C56.8303 69.4897 57.7072 66.5336 59.1118 63.7991C60.8699 60.3795 63.4723 57.3145 66.4172 55.6144C71.3555 52.7627 75.1362 54.8972 75.1527 60.5787ZM29.768 89.4626C29.3868 89.6819 29.1268 89.689 29.0198 89.6253C28.97 89.5967 28.9177 89.5242 28.8747 89.4186C28.8475 89.349 28.8402 89.242 28.8258 89.1437C28.8141 89.0669 28.7922 89.0134 28.7916 88.9153L28.6271 34.4576C28.6271 34.2826 28.6807 34.0941 28.7162 33.9096C28.9471 32.7212 29.7299 31.6479 30.5109 31.2031L65.3603 11.0796C65.4466 11.0299 65.5176 11.0044 65.591 10.975C65.6323 10.9586 65.6774 10.9344 65.7158 10.9232C65.7759 10.9054 65.8239 10.9012 65.8727 10.8959C65.9488 10.8889 66.0219 10.8864 66.0747 10.9087C66.0843 10.9125 66.1014 10.9116 66.1094 10.916C66.2146 10.977 66.3384 11.2026 66.3384 11.6377L66.4446 49.9421C65.2477 49.8588 64.0086 50.1073 62.8751 50.5304L62.7883 22.6277C62.7874 22.304 62.6132 22.005 62.332 21.8441C62.0525 21.684 61.7067 21.6866 61.4254 21.8485C60.9027 22.1545 60.4207 22.2359 60.1271 22.0678C59.8387 21.9016 59.6725 21.4664 59.6725 20.873C59.6725 20.5493 59.5 20.2503 59.2196 20.0885C58.9402 19.9275 58.5935 19.9275 58.314 20.0885L35.7812 33.0941C35.5009 33.2559 35.3284 33.5549 35.3284 33.8786C35.3284 35.521 34.115 37.6179 32.6795 38.4582C32.4009 38.6209 32.2302 38.9198 32.2311 39.2427L32.3399 77.896C32.3408 78.2188 32.5133 78.5168 32.7927 78.6778C33.0722 78.837 33.4154 78.8397 33.6966 78.6787C34.222 78.3771 34.6943 78.2975 34.987 78.4673C35.2789 78.6345 35.4505 79.0758 35.4558 79.6772C35.4584 79.9991 35.6327 80.2945 35.9121 80.4546C36.1831 80.6099 36.5262 80.6183 36.8134 80.4529L50.8388 72.3666C50.851 72.4161 50.8641 72.4645 50.8769 72.5135C51.2274 73.8637 51.8912 75.157 52.9225 76.097L29.768 89.4626ZM50.5336 70.3685C50.5355 70.3983 50.534 70.4206 50.5363 70.4508L37.0115 78.248C36.5453 77.0602 35.4803 76.4009 34.1477 76.6109L34.0442 39.7273C35.6636 38.5546 36.9133 36.3912 37.1123 34.4172L58.1106 22.2978C58.3396 22.8842 58.7199 23.3485 59.2267 23.6386C59.7406 23.9349 60.3437 24.0277 60.9814 23.9216L61.0663 51.3833C61.0424 51.3965 61.0195 51.4107 60.9965 51.4248C56.2811 54.1429 52.2905 60.0309 50.971 65.7183C50.6185 67.2353 50.436 68.8267 50.5336 70.3685ZM54.8028 75.2418C53.9437 74.7414 53.0361 73.6118 52.6211 71.932C52.1789 70.1407 52.148 67.8807 53.0634 64.8485C54.6366 59.6418 58.8706 53.7983 63.8143 52.126C65.6567 51.5122 67.1411 51.7006 68.1577 52.2863L68.8803 52.7064C68.8628 52.71 68.8444 52.7189 68.8269 52.7226C67.7572 52.9514 66.4143 53.5215 65.5071 54.0437C62.3467 55.87 59.519 59.1242 57.5971 62.7824C55.9919 65.8356 55.0155 69.1696 55.0239 72.2002C55.0287 73.782 55.2882 74.5915 55.3286 74.7727C55.3951 75.0724 55.4439 75.3876 55.5342 75.6663L54.8028 75.2418ZM58.1689 87.2612L58.1539 79.2822C58.3362 79.3647 59.3119 80.0496 60.8532 80.1999L60.8815 88.8346L58.1689 87.2612ZM66.204 83.8482C65.8732 83.7934 65.5283 83.9251 65.3249 84.1967L62.6893 87.707L62.6645 80.146C63.7274 79.9872 65.1563 79.5124 66.5886 78.6631C67.5555 78.0934 68.6726 77.2406 69.3889 76.5932L69.4145 84.4054L66.204 83.8482Z"/>
</mask>
<path d="M73.5797 53.3463L73.5781 53.3452C73.5717 53.3414 73.5663 53.3363 73.5598 53.3326C73.5542 53.3293 73.5478 53.3275 73.5422 53.3243L69.0652 50.7191C68.805 50.5693 68.5342 50.4446 68.2567 50.3369L68.1498 11.635C68.1498 10.6247 67.7515 9.81433 67.0646 9.38759C67.0459 9.37476 67.0349 9.35509 67.015 9.34348L59.2417 4.81164C58.5156 4.39153 57.5825 4.44548 56.6742 4.96022L53.1887 6.97143C52.7553 7.22172 52.6067 7.77538 52.857 8.20875C53.1073 8.64124 53.6618 8.78805 54.0943 8.54041L57.5728 6.53363C57.9549 6.31695 58.2264 6.31783 58.3334 6.37886L64.069 9.7229L29.6106 29.6218C28.0433 30.5159 26.8157 32.6333 26.8157 34.4455C26.8971 61.6938 26.8962 61.3759 26.977 88.4429L21.2438 85.0882C21.1032 85.0068 21.0139 84.7326 21.0059 84.3718L20.8582 29.9128C20.8582 28.7603 21.7347 27.232 22.7261 26.6474L46.1539 13.1244C46.5873 12.8741 46.7358 12.3205 46.4856 11.8871C46.2344 11.4537 45.6807 11.3052 45.2482 11.5554L21.8134 25.0829C20.2621 25.9983 19.0469 28.1191 19.0469 29.9154L19.1946 84.3948C19.2264 85.8081 19.926 86.4184 20.3346 86.6545L28.1035 91.2005C28.1269 91.2142 28.154 91.2093 28.1781 91.2207C28.9802 91.6463 29.8848 91.4861 30.6736 91.0316L54.6013 77.2188L56.3409 78.2292L56.3585 87.7848C56.3594 88.1068 56.531 88.4048 56.8096 88.5667L61.3379 91.1934C61.37 91.2121 61.4082 91.207 61.442 91.2214C61.4678 91.2327 61.4806 91.2605 61.5077 91.2695C61.7419 91.3468 61.9811 91.3292 62.2192 91.2007C62.2277 91.1962 62.2378 91.1983 62.2462 91.1934C62.2831 91.1721 62.3004 91.1317 62.3335 91.1059C62.3965 91.0571 62.4673 91.0195 62.5168 90.9537L66.4402 85.7276L70.1689 86.375C70.7365 86.4677 71.2312 86.0344 71.2294 85.48L71.1942 74.7238C74.7675 70.606 76.977 65.2208 76.964 60.5734C76.9543 57.1731 75.752 54.6083 73.5797 53.3463ZM75.1527 60.5787C75.169 66.1852 71.3582 73.5494 65.9203 76.9422C60.5981 80.2308 56.8541 77.7327 56.8379 72.1914C56.8303 69.4897 57.7072 66.5336 59.1118 63.7991C60.8699 60.3795 63.4723 57.3145 66.4172 55.6144C71.3555 52.7627 75.1362 54.8972 75.1527 60.5787ZM29.768 89.4626C29.3868 89.6819 29.1268 89.689 29.0198 89.6253C28.97 89.5967 28.9177 89.5242 28.8747 89.4186C28.8475 89.349 28.8402 89.242 28.8258 89.1437C28.8141 89.0669 28.7922 89.0134 28.7916 88.9153L28.6271 34.4576C28.6271 34.2826 28.6807 34.0941 28.7162 33.9096C28.9471 32.7212 29.7299 31.6479 30.5109 31.2031L65.3603 11.0796C65.4466 11.0299 65.5176 11.0044 65.591 10.975C65.6323 10.9586 65.6774 10.9344 65.7158 10.9232C65.7759 10.9054 65.8239 10.9012 65.8727 10.8959C65.9488 10.8889 66.0219 10.8864 66.0747 10.9087C66.0843 10.9125 66.1014 10.9116 66.1094 10.916C66.2146 10.977 66.3384 11.2026 66.3384 11.6377L66.4446 49.9421C65.2477 49.8588 64.0086 50.1073 62.8751 50.5304L62.7883 22.6277C62.7874 22.304 62.6132 22.005 62.332 21.8441C62.0525 21.684 61.7067 21.6866 61.4254 21.8485C60.9027 22.1545 60.4207 22.2359 60.1271 22.0678C59.8387 21.9016 59.6725 21.4664 59.6725 20.873C59.6725 20.5493 59.5 20.2503 59.2196 20.0885C58.9402 19.9275 58.5935 19.9275 58.314 20.0885L35.7812 33.0941C35.5009 33.2559 35.3284 33.5549 35.3284 33.8786C35.3284 35.521 34.115 37.6179 32.6795 38.4582C32.4009 38.6209 32.2302 38.9198 32.2311 39.2427L32.3399 77.896C32.3408 78.2188 32.5133 78.5168 32.7927 78.6778C33.0722 78.837 33.4154 78.8397 33.6966 78.6787C34.222 78.3771 34.6943 78.2975 34.987 78.4673C35.2789 78.6345 35.4505 79.0758 35.4558 79.6772C35.4584 79.9991 35.6327 80.2945 35.9121 80.4546C36.1831 80.6099 36.5262 80.6183 36.8134 80.4529L50.8388 72.3666C50.851 72.4161 50.8641 72.4645 50.8769 72.5135C51.2274 73.8637 51.8912 75.157 52.9225 76.097L29.768 89.4626ZM50.5336 70.3685C50.5355 70.3983 50.534 70.4206 50.5363 70.4508L37.0115 78.248C36.5453 77.0602 35.4803 76.4009 34.1477 76.6109L34.0442 39.7273C35.6636 38.5546 36.9133 36.3912 37.1123 34.4172L58.1106 22.2978C58.3396 22.8842 58.7199 23.3485 59.2267 23.6386C59.7406 23.9349 60.3437 24.0277 60.9814 23.9216L61.0663 51.3833C61.0424 51.3965 61.0195 51.4107 60.9965 51.4248C56.2811 54.1429 52.2905 60.0309 50.971 65.7183C50.6185 67.2353 50.436 68.8267 50.5336 70.3685ZM54.8028 75.2418C53.9437 74.7414 53.0361 73.6118 52.6211 71.932C52.1789 70.1407 52.148 67.8807 53.0634 64.8485C54.6366 59.6418 58.8706 53.7983 63.8143 52.126C65.6567 51.5122 67.1411 51.7006 68.1577 52.2863L68.8803 52.7064C68.8628 52.71 68.8444 52.7189 68.8269 52.7226C67.7572 52.9514 66.4143 53.5215 65.5071 54.0437C62.3467 55.87 59.519 59.1242 57.5971 62.7824C55.9919 65.8356 55.0155 69.1696 55.0239 72.2002C55.0287 73.782 55.2882 74.5915 55.3286 74.7727C55.3951 75.0724 55.4439 75.3876 55.5342 75.6663L54.8028 75.2418ZM58.1689 87.2612L58.1539 79.2822C58.3362 79.3647 59.3119 80.0496 60.8532 80.1999L60.8815 88.8346L58.1689 87.2612ZM66.204 83.8482C65.8732 83.7934 65.5283 83.9251 65.3249 84.1967L62.6893 87.707L62.6645 80.146C63.7274 79.9872 65.1563 79.5124 66.5886 78.6631C67.5555 78.0934 68.6726 77.2406 69.3889 76.5932L69.4145 84.4054L66.204 83.8482Z" fill="#CFF43F" stroke="#313132" mask="url(#path-6-inside-1_111_28076)"/>
<path d="M64.4458 69.3356L64.6765 69.5498L64.8329 69.2767L69.0826 61.8581C69.2625 61.5442 69.6613 61.4363 69.9784 61.6149C70.2927 61.796 70.401 62.1958 70.2213 62.5099C70.2213 62.5099 70.2213 62.5099 70.2212 62.51L65.4049 70.9177C65.4049 70.9178 65.4048 70.9179 65.4048 70.918C65.1952 71.2817 64.7011 71.3613 64.389 71.0724C64.389 71.0724 64.3889 71.0723 64.3888 71.0722L61.8968 68.7571C61.8968 68.7571 61.8968 68.757 61.8968 68.757C61.8967 68.757 61.8967 68.757 61.8967 68.757C61.6317 68.5104 61.6165 68.0957 61.8625 67.8308C62.1107 67.5656 62.526 67.5525 62.7895 67.7968L64.4458 69.3356Z" fill="#CFF43F" stroke="#313132" stroke-width="0.5"/>
</svg>
